<svg width="130" height="110" viewBox="0 0 130 110" fill="none" xmlns="http://www.w3.org/2000/svg">
<path d="M8.5471 90.9187C8.5471 92.9892 6.87969 94.7388 4.89132 94.7388H1.10246V94.6371C0.585802 94.6018 0.166992 94.1713 0.166992 93.6507V83.1217C0.166992 82.5699 0.617115 82.1354 1.15335 82.1354V82.0688H3.82277C5.87376 82.0688 7.47855 83.6228 7.47855 85.6229C7.47855 86.4409 7.19673 87.2081 6.72704 87.8265C7.81125 88.4763 8.5471 89.627 8.5471 90.9147V90.9187ZM3.82277 84.0416H2.13579V87.2942H4.03805C4.85609 87.1768 5.50584 86.4761 5.50584 85.6268C5.50584 84.7265 4.78955 84.0416 3.82277 84.0416ZM6.57439 90.9187C6.57439 90.0341 5.72503 89.2669 4.75433 89.2669H2.13579V92.77H4.88741C5.772 92.77 6.57048 91.8854 6.57048 90.9187H6.57439Z" fill="#4F4895"/>
<path d="M14.2852 89.4197V92.7232H19.0565C19.6084 92.7232 20.0586 93.1733 20.0586 93.7252C20.0586 94.2771 19.6084 94.7077 19.0565 94.7077H13.2832C12.7313 94.7077 12.2969 94.2732 12.2969 93.7252V83.0436C12.2969 82.4917 12.7313 82.0416 13.2832 82.0416H19.0565C19.6084 82.0416 20.0586 82.4917 20.0586 83.0436C20.0586 83.5955 19.6084 84.0456 19.0565 84.0456H14.2852V87.4314H19.0565C19.6084 87.4314 20.0586 87.8658 20.0586 88.4334C20.0586 89.0009 19.6084 89.4158 19.0565 89.4158H14.2852V89.4197Z" fill="#4F4895"/>
<path d="M34.979 94.657C34.4936 94.9075 33.8948 94.7079 33.6443 94.2226L32.3409 91.6197H26.6184C26.5675 91.6197 26.5362 91.6197 26.501 91.604L25.2994 94.1912C25.1311 94.5592 24.7631 94.7744 24.3991 94.7744C24.2504 94.7744 24.1173 94.7431 23.9842 94.6727C23.4832 94.4378 23.268 93.8546 23.4989 93.3536L28.3719 82.8247C28.5403 82.4724 28.873 82.2571 29.2565 82.2415H29.2722C29.6558 82.2415 29.9885 82.4567 30.1724 82.7933L35.4291 93.3223C35.6796 93.8233 35.48 94.4222 34.979 94.657ZM31.3428 89.6156L29.3074 85.545L27.4208 89.6156H31.3428Z" fill="#4F4895"/>
<path d="M45.6096 94.7077C42.1222 94.7077 39.2844 91.8543 39.2844 88.3668C39.2844 84.8794 42.1222 82.0416 45.6096 82.0416C47.1792 82.0416 48.6822 82.6092 49.8486 83.6582C50.2674 84.0261 50.2987 84.6602 49.9151 85.0751C49.5472 85.4743 48.9131 85.5095 48.5139 85.1416C47.7115 84.4253 46.6782 84.0417 45.6096 84.0417C43.222 84.0417 41.2884 85.9792 41.2884 88.3629C41.2884 90.7466 43.2259 92.6841 45.6096 92.6841C46.7095 92.6841 47.7624 92.2848 48.5648 91.5333C48.964 91.1498 49.5981 91.1811 49.9817 91.5842C50.3496 91.9835 50.334 92.6175 49.9308 93.0011C48.7448 94.0853 47.2105 94.7038 45.6096 94.7038V94.7077Z" fill="#4F4895"/>
<path d="M60.3423 94.6919C56.8392 94.6919 54.0015 91.8542 54.0015 88.3511C54.0015 84.848 56.8392 82.0259 60.3423 82.0259C63.8455 82.0259 66.6675 84.8636 66.6675 88.3667C66.6675 91.8699 63.8298 94.6919 60.3423 94.6919ZM60.3423 84.0456C57.9547 84.0456 56.0211 85.983 56.0211 88.3511C56.0211 90.7191 57.9586 92.6722 60.3423 92.6722C62.726 92.6722 64.6478 90.7348 64.6478 88.3511C64.6478 85.9674 62.7104 84.0456 60.3423 84.0456Z" fill="#4F4895"/>
<path d="M80.7351 93.7056L80.7195 93.7213V93.87C80.7195 93.87 80.7038 93.9013 80.7038 93.9209C80.7038 93.9405 80.7038 93.9561 80.6881 93.9718V94.0227L80.6725 94.0579L80.6373 94.1088C80.6373 94.1088 80.6373 94.1401 80.6216 94.1597C80.6216 94.1753 80.6059 94.191 80.6059 94.2106L80.5746 94.2614C80.5746 94.2614 80.559 94.2771 80.559 94.2928C80.5433 94.3084 80.5277 94.3084 80.5277 94.328C80.512 94.3436 80.512 94.3632 80.4963 94.3632C80.4963 94.3789 80.4807 94.3945 80.4611 94.4141C80.4455 94.4141 80.4455 94.4298 80.4298 94.4493C80.4142 94.4493 80.4142 94.465 80.3985 94.4806C80.3828 94.4806 80.3633 94.4963 80.3633 94.5159H80.3476L80.332 94.5315C80.3006 94.5667 80.2498 94.5824 80.1989 94.6137C80.148 94.6294 80.1167 94.6646 80.0658 94.6803H80.0501C79.9993 94.6959 79.9484 94.7155 79.9014 94.7155H79.8662C79.8349 94.7311 79.784 94.7311 79.7331 94.7311H79.6157L79.6 94.7155H79.5178C79.5178 94.7155 79.5022 94.6998 79.4826 94.6998C79.4513 94.6998 79.4317 94.6842 79.4004 94.6842C79.4004 94.6842 79.3847 94.6685 79.3691 94.6685C79.3534 94.6685 79.3378 94.6529 79.3182 94.6333C79.3025 94.6333 79.283 94.6333 79.2673 94.6176C79.2517 94.6176 79.236 94.602 79.2164 94.5824C79.2008 94.5824 79.1812 94.5824 79.1812 94.5667C79.1499 94.5511 79.1303 94.5511 79.1147 94.5315C79.1147 94.5159 79.099 94.5159 79.0794 94.5002C79.0638 94.4846 79.0286 94.465 79.0129 94.4337C78.9972 94.4337 78.9972 94.418 78.9972 94.418C78.9659 94.4024 78.9464 94.3671 78.9307 94.3515V94.3358L72.5546 86.0575V93.7174C72.5546 94.2849 72.0888 94.7351 71.537 94.7351C70.9851 94.7351 70.5193 94.2849 70.5193 93.7174V83.0045C70.5193 83.0045 70.5349 82.9888 70.5349 82.9692V82.9184C70.5349 82.9184 70.5349 82.8831 70.5506 82.8675V82.8166C70.5506 82.8166 70.5663 82.7814 70.5663 82.7657C70.5663 82.7501 70.5819 82.7305 70.5819 82.7305C70.5819 82.7148 70.5976 82.6992 70.5976 82.6796L70.6289 82.6287C70.6289 82.6287 70.6289 82.5935 70.6445 82.5778C70.6445 82.5622 70.6602 82.5426 70.6798 82.5269C70.6798 82.5269 70.6798 82.5113 70.6954 82.4917L70.7267 82.4604L70.7424 82.4252L70.7933 82.3743C70.7933 82.3743 70.8089 82.3586 70.8246 82.3391L70.8598 82.3078C70.8598 82.3078 70.8755 82.2921 70.8911 82.2725H70.9068L70.9224 82.2569C70.9381 82.2412 70.9577 82.2216 70.9733 82.2216C70.989 82.206 71.0046 82.206 71.0046 82.1864C71.0203 82.1864 71.0359 82.1708 71.0555 82.1708C71.0712 82.1551 71.0868 82.1551 71.1064 82.1551L71.1573 82.1238C71.1573 82.1238 71.1729 82.1238 71.1886 82.1081C71.2043 82.1081 71.2199 82.1081 71.2395 82.0925H71.2904C71.2904 82.0925 71.3217 82.0768 71.3412 82.0768H71.3921C71.3921 82.0768 71.4234 82.0612 71.443 82.0612H71.6426C71.6426 82.0612 71.6739 82.0768 71.6935 82.0768H71.7444L71.7757 82.0925L71.8423 82.1081C71.8423 82.1081 71.8579 82.1238 71.8736 82.1238C71.8892 82.1238 71.9049 82.1394 71.9245 82.1394C71.9401 82.1394 71.9558 82.1551 71.9753 82.1551L72.0066 82.1903C72.0066 82.1903 72.0419 82.206 72.0575 82.206C72.0732 82.2216 72.0888 82.2216 72.0888 82.2373C72.1045 82.2373 72.1241 82.253 72.1397 82.2725C72.1554 82.2725 72.1554 82.2882 72.171 82.2882L72.2063 82.3234L72.2376 82.3586L72.2689 82.39C72.2689 82.39 72.3041 82.4252 72.3041 82.4408C72.3041 82.4408 72.3093 82.4461 72.3198 82.4565L78.6919 90.7348V83.0749C78.6919 82.5074 79.1421 82.0573 79.7096 82.0573C80.2772 82.0573 80.7273 82.5074 80.7273 83.0749V93.7056H80.7351Z" fill="#4F4895"/>
<path d="M97.8396 94.6919C94.3365 94.6919 91.4988 91.8542 91.4988 88.3511C91.4988 84.848 94.3365 82.0259 97.8396 82.0259C101.343 82.0259 104.165 84.8636 104.165 88.3667C104.165 91.8699 101.327 94.6919 97.8396 94.6919ZM97.8396 84.0456C95.452 84.0456 93.5185 85.983 93.5185 88.3511C93.5185 90.7191 95.4559 92.6722 97.8396 92.6722C100.223 92.6722 102.145 90.7348 102.145 88.3511C102.145 85.9674 100.208 84.0456 97.8396 84.0456Z" fill="#4F4895"/>
<path d="M118.232 93.7056L118.216 93.7213V93.87C118.216 93.87 118.201 93.9013 118.201 93.9209C118.201 93.9405 118.201 93.9561 118.185 93.9718V94.0227L118.169 94.0579L118.134 94.1088C118.134 94.1088 118.134 94.1401 118.118 94.1597C118.118 94.1753 118.103 94.191 118.103 94.2106L118.071 94.2614C118.071 94.2614 118.056 94.2771 118.056 94.2928C118.04 94.3084 118.024 94.3084 118.024 94.328C118.009 94.3436 118.009 94.3632 117.993 94.3632C117.993 94.3789 117.978 94.3945 117.958 94.4141C117.942 94.4141 117.942 94.4298 117.927 94.4493C117.911 94.4493 117.911 94.465 117.895 94.4806C117.88 94.4806 117.86 94.4963 117.86 94.5159H117.844L117.829 94.5315C117.797 94.5667 117.747 94.5824 117.696 94.6137C117.645 94.6294 117.614 94.6646 117.563 94.6803H117.547C117.496 94.6959 117.445 94.7155 117.398 94.7155H117.363C117.332 94.7311 117.281 94.7311 117.23 94.7311H117.112L117.097 94.7155H117.015C117.015 94.7155 116.999 94.6998 116.979 94.6998C116.948 94.6998 116.929 94.6842 116.897 94.6842C116.897 94.6842 116.882 94.6685 116.866 94.6685C116.85 94.6685 116.835 94.6529 116.815 94.6333C116.799 94.6333 116.78 94.6333 116.764 94.6176C116.748 94.6176 116.733 94.602 116.713 94.5824C116.698 94.5824 116.678 94.5824 116.678 94.5667C116.647 94.5511 116.627 94.5511 116.611 94.5315C116.611 94.5159 116.596 94.5159 116.576 94.5002C116.561 94.4846 116.525 94.465 116.51 94.4337C116.494 94.4337 116.494 94.418 116.494 94.418C116.463 94.4024 116.443 94.3671 116.428 94.3515V94.3358L110.051 86.0575V93.7174C110.051 94.2849 109.586 94.7351 109.034 94.7351C108.482 94.7351 108.016 94.2849 108.016 93.7174V83.0045C108.016 83.0045 108.032 82.9888 108.032 82.9692V82.9184C108.032 82.9184 108.032 82.8831 108.047 82.8675V82.8166C108.047 82.8166 108.063 82.7814 108.063 82.7657C108.063 82.7501 108.079 82.7305 108.079 82.7305C108.079 82.7148 108.094 82.6992 108.094 82.6796L108.126 82.6287C108.126 82.6287 108.126 82.5935 108.141 82.5778C108.141 82.5622 108.157 82.5426 108.177 82.5269C108.177 82.5269 108.177 82.5113 108.192 82.4917L108.224 82.4604L108.239 82.4252L108.29 82.3743C108.29 82.3743 108.306 82.3586 108.321 82.3391L108.357 82.3078C108.357 82.3078 108.372 82.2921 108.388 82.2725H108.404L108.419 82.2569C108.435 82.2412 108.454 82.2216 108.47 82.2216C108.486 82.206 108.501 82.206 108.501 82.1864C108.517 82.1864 108.533 82.1708 108.552 82.1708C108.568 82.1551 108.584 82.1551 108.603 82.1551L108.654 82.1238C108.654 82.1238 108.67 82.1238 108.685 82.1081C108.701 82.1081 108.717 82.1081 108.736 82.0925H108.787C108.787 82.0925 108.818 82.0768 108.838 82.0768H108.889C108.889 82.0768 108.92 82.0612 108.94 82.0612H109.139C109.139 82.0612 109.171 82.0768 109.19 82.0768H109.241L109.273 82.0925L109.339 82.1081C109.339 82.1081 109.355 82.1238 109.37 82.1238C109.386 82.1238 109.402 82.1394 109.421 82.1394C109.437 82.1394 109.453 82.1551 109.472 82.1551L109.503 82.1903C109.503 82.1903 109.539 82.206 109.554 82.206C109.57 82.2216 109.586 82.2216 109.586 82.2373C109.601 82.2373 109.621 82.253 109.637 82.2725C109.652 82.2725 109.652 82.2882 109.668 82.2882L109.703 82.3234L109.734 82.3586L109.766 82.39C109.766 82.39 109.801 82.4252 109.801 82.4408C109.801 82.4408 109.806 82.4461 109.817 82.4565L116.189 90.7348V83.0749C116.189 82.5074 116.639 82.0573 117.206 82.0573C117.774 82.0573 118.224 82.5074 118.224 83.0749V93.7056H118.232Z" fill="#4F4895"/>
<path d="M124.056 89.4197V92.7232H128.832C129.384 92.7232 129.834 93.1733 129.834 93.7252C129.834 94.2771 129.384 94.7077 128.832 94.7077H123.058C122.506 94.7077 122.076 94.2732 122.076 93.7252V83.0436C122.076 82.4917 122.51 82.0416 123.058 82.0416H128.832C129.384 82.0416 129.834 82.4917 129.834 83.0436C129.834 83.5955 129.384 84.0456 128.832 84.0456H124.056V87.4314H128.832C129.384 87.4314 129.834 87.8658 129.834 88.4334C129.834 89.0009 129.384 89.4158 128.832 89.4158H124.056V89.4197Z" fill="#4F4895"/>
<path d="M39.3473 109.953C36.8893 109.953 34.8931 107.945 34.8931 105.487C34.8931 103.029 36.8893 101.033 39.3473 101.033C40.4511 101.033 41.5079 101.432 42.3299 102.172C42.6234 102.43 42.6469 102.876 42.3768 103.17C42.1185 103.452 41.6723 103.475 41.3905 103.217C40.8269 102.712 40.0988 102.442 39.3473 102.442C37.6643 102.442 36.3021 103.804 36.3021 105.487C36.3021 107.17 37.6643 108.532 39.3473 108.532C40.1223 108.532 40.8621 108.25 41.4257 107.722C41.7075 107.452 42.1537 107.475 42.4238 107.757C42.6821 108.039 42.6704 108.485 42.3886 108.755C41.5549 109.519 40.4746 109.953 39.3434 109.953H39.3473Z" fill="#776947"/>
<path d="M53.4227 109.918C53.0822 110.094 52.6595 109.953 52.4833 109.613L51.5674 107.781H47.5359C47.5007 107.781 47.4772 107.781 47.4537 107.769L46.6082 109.589C46.4908 109.848 46.2325 110 45.9741 110C45.8685 110 45.7745 109.977 45.6806 109.93C45.3283 109.765 45.1757 109.354 45.3401 109.002L48.7727 101.585C48.8902 101.338 49.125 101.186 49.3951 101.174H49.4068C49.6769 101.174 49.9117 101.327 50.0409 101.561L53.7437 108.979C53.9198 109.331 53.7789 109.754 53.4266 109.918H53.4227ZM50.859 106.368L49.4264 103.499L48.0995 106.368H50.8629H50.859Z" fill="#776947"/>
<path d="M62.382 103.714C62.382 105.1 61.1608 106.29 59.7008 106.29H57.8456V109.241C57.8456 109.628 57.5403 109.934 57.1528 109.934C56.7653 109.934 56.46 109.628 56.46 109.241V101.777C56.46 101.413 56.7535 101.107 57.1175 101.084V101.013H59.7948C61.1921 101.013 62.382 102.246 62.382 103.718V103.714ZM60.9847 103.714C60.9847 103.033 60.421 102.411 59.7987 102.411H57.8495V104.888H59.7048C60.3858 104.888 60.9847 104.337 60.9847 103.714Z" fill="#776947"/>
<path d="M65.9125 109.941C65.5251 109.941 65.208 109.624 65.208 109.225V101.738C65.208 101.338 65.5251 101.021 65.9125 101.021C66.3 101.021 66.6288 101.338 66.6288 101.738V109.225C66.6288 109.624 66.3118 109.941 65.9125 109.941Z" fill="#776947"/>
<path d="M76.3123 101.761C76.3123 102.16 75.9953 102.477 75.6078 102.477H73.5881V109.256C73.5881 109.656 73.2711 109.973 72.8836 109.973C72.4961 109.973 72.1673 109.656 72.1673 109.256V102.477H70.1594C69.7719 102.477 69.4548 102.16 69.4548 101.761C69.4548 101.362 69.7719 101.056 70.1594 101.056H75.6117C75.9992 101.056 76.3163 101.373 76.3163 101.761H76.3123Z" fill="#776947"/>
<path d="M86.943 109.918C86.6024 110.094 86.1797 109.953 86.0036 109.613L85.0877 107.781H81.0561C81.0209 107.781 80.9974 107.781 80.9739 107.769L80.1285 109.589C80.0111 109.848 79.7527 110 79.4944 110C79.3887 110 79.2948 109.977 79.2009 109.93C78.8486 109.765 78.6959 109.354 78.8603 109.002L82.293 101.585C82.4104 101.338 82.6453 101.186 82.9153 101.174H82.9271C83.1972 101.174 83.432 101.327 83.5612 101.561L87.2639 108.979C87.4401 109.331 87.2991 109.754 86.9469 109.918H86.943ZM84.3792 106.368L82.9467 103.499L81.6198 106.368H84.3831H84.3792Z" fill="#776947"/>
<path d="M90.673 109.989C90.4969 109.989 90.3208 109.918 90.1916 109.789C90.0624 109.66 89.9802 109.484 89.9802 109.296V101.761C89.9802 101.374 90.2973 101.068 90.673 101.068C91.0488 101.068 91.3658 101.374 91.3658 101.761V108.591L94.822 108.556H94.8337C95.2095 108.556 95.5148 108.861 95.5265 109.237C95.5265 109.625 95.2212 109.942 94.8337 109.942L90.6848 109.989H90.673Z" fill="#776947"/>
<path d="M79.4821 12.7265C79.2394 12.4604 78.8206 12.4408 78.5505 12.6874L74.3272 16.5545C74.0611 16.8011 74.0415 17.216 74.2881 17.4861C74.4133 17.6231 74.5895 17.7014 74.7734 17.7014C74.9378 17.7014 75.0944 17.6387 75.2196 17.5291L79.443 13.662C79.7091 13.4154 79.7287 13.0005 79.4821 12.7343V12.7265Z" fill="#8C7228"/>
<path d="M79.4391 26.3358L75.2157 22.4687C74.9496 22.2221 74.5308 22.2417 74.2842 22.5118C74.0415 22.7779 74.0572 23.1967 74.3272 23.4394L78.5506 27.3065C78.6719 27.4161 78.8285 27.4788 78.9968 27.4788C79.1807 27.4788 79.3569 27.4005 79.4821 27.2635C79.7248 26.9973 79.7091 26.5785 79.4391 26.3358Z" fill="#4F4895"/>
<path d="M83.095 19.4746H77.0282C76.6642 19.4746 76.3706 19.7682 76.3706 20.1322C76.3706 20.4962 76.6642 20.7898 77.0282 20.7898H83.095C83.4591 20.7898 83.7526 20.4962 83.7526 20.1322C83.7526 19.7682 83.4591 19.4746 83.095 19.4746Z" fill="#4F4895"/>
<path d="M65.0002 0.220947C51.6139 0.220947 40.7209 11.1139 40.7209 24.5002C40.7209 34.8295 47.2732 44.0472 57.0232 47.4368C57.1876 47.4956 57.3677 47.4838 57.5242 47.4095C57.6847 47.3312 57.8021 47.1981 57.8608 47.0337C57.9195 46.8693 57.9078 46.6893 57.8334 46.5288C57.7591 46.3722 57.6221 46.2509 57.4577 46.1922C48.236 42.9865 42.04 34.2659 42.04 24.4963C42.04 11.8341 52.3419 1.53217 65.0041 1.53217C77.6662 1.53217 87.9682 11.8341 87.9682 24.4963C87.9682 34.3167 81.7291 43.0491 72.4448 46.2274C72.1004 46.3448 71.9203 46.7206 72.0338 47.065C72.1238 47.3312 72.3743 47.5112 72.6562 47.5112C72.7305 47.5112 72.801 47.4995 72.8675 47.476C82.6841 44.1138 89.2794 34.8804 89.2794 24.5002C89.2794 11.1139 78.3864 0.220947 65.0002 0.220947Z" fill="#8C7228"/>
<path d="M80.3513 71.2421H49.649C49.285 71.2421 48.9915 71.5356 48.9915 71.8996C48.9915 72.2636 49.285 72.5572 49.649 72.5572H80.3513C80.7153 72.5572 81.0089 72.2636 81.0089 71.8996C81.0089 71.5356 80.7153 71.2421 80.3513 71.2421Z" fill="#8C7228"/>
<path d="M83.2555 68.0247H60.859C60.495 68.0247 60.2014 68.3182 60.2014 68.6822C60.2014 69.0462 60.495 69.3398 60.859 69.3398H83.2555C83.6195 69.3398 83.9131 69.0462 83.9131 68.6822C83.9131 68.3182 83.6195 68.0247 83.2555 68.0247Z" fill="#8C7228"/>
<path d="M55.2618 68.0249H38.713C38.349 68.0249 38.0554 68.3185 38.0554 68.6825C38.0554 69.0465 38.349 69.34 38.713 69.34H55.2618C55.6259 69.34 55.9194 69.0465 55.9194 68.6825C55.9194 68.3185 55.6259 68.0249 55.2618 68.0249Z" fill="#8C7228"/>
<path d="M91.2795 68.0248H86.7391C86.3751 68.0248 86.0815 68.3183 86.0815 68.6823C86.0815 69.0464 86.3751 69.3399 86.7391 69.3399H91.2795C91.6435 69.3399 91.937 69.0464 91.937 68.6823C91.937 68.3183 91.6435 68.0248 91.2795 68.0248Z" fill="#8C7228"/>
<path d="M58.3069 31.6668C57.939 31.6394 57.6298 31.9173 57.6063 32.2774L55.2304 65.4142C55.203 65.7743 55.477 66.0914 55.8371 66.1148H55.888C56.2324 66.1148 56.5181 65.8487 56.5416 65.5082L58.9175 32.3713C58.9449 32.0112 58.6709 31.6942 58.3069 31.6668Z" fill="#4F4895"/>
<path d="M67.3408 37.2367C67.3291 37.0605 67.2469 36.9001 67.1138 36.7865C66.9807 36.6691 66.8046 36.6143 66.6363 36.6261C66.4601 36.6378 66.2997 36.72 66.1862 36.8531C66.0726 36.9862 66.0139 37.1545 66.0296 37.3306L68.0806 65.5083C68.1041 65.8527 68.3937 66.1189 68.7342 66.1189H68.7812C68.9573 66.1032 69.1178 66.0249 69.2313 65.8919C69.3448 65.7588 69.4036 65.5905 69.3879 65.4143L67.3369 37.2367H67.3408Z" fill="#8C7228"/>
<path d="M72.9457 42.497C72.7109 39.2052 69.9436 36.6258 66.644 36.6258H62.8199L64.1429 32.9818H71.7519C72.1159 32.9818 72.4095 32.6882 72.4095 32.3242C72.4095 31.9602 72.1159 31.6666 71.7519 31.6666H63.2231L60.9412 37.9409H66.6401C69.2547 37.9409 71.4466 39.9841 71.6306 42.5987L73.4546 65.5158C73.482 65.8564 73.7716 66.1225 74.1082 66.1225H74.163C74.5231 66.0912 74.7932 65.7742 74.7658 65.4141L72.9418 42.5009L72.9457 42.497Z" fill="#8C7228"/>
<path d="M67.7789 11.7283C67.0743 11.5717 66.5264 11.3212 66.1428 10.9807C65.8336 10.7067 65.6574 10.2918 65.6574 9.84557V8.01768C65.6574 7.65367 65.3639 7.36011 64.9999 7.36011C64.6358 7.36011 64.3423 7.65367 64.3423 8.01768V9.84557C64.3423 10.6675 64.6789 11.4425 65.2699 11.967C65.8218 12.4563 66.5733 12.8125 67.4971 13.016C69.3171 13.4191 69.2075 14.8361 69.188 14.9965C69.141 15.3566 69.3954 15.6854 69.7594 15.7324C69.7868 15.7324 69.8142 15.7363 69.8416 15.7363C70.1704 15.7363 70.4522 15.4897 70.4953 15.1609C70.6166 14.2098 70.2056 12.2684 67.7828 11.7283H67.7789Z" fill="#4F4895"/>
<path d="M65.0002 7.3562C64.6362 7.3562 64.3426 7.64976 64.3426 8.01377V9.84166C64.3426 10.2918 64.1665 10.7028 63.8573 10.9768C63.4737 11.3173 62.9218 11.5678 62.2212 11.7243C59.7983 12.2606 59.3874 14.202 59.5087 15.157C59.5518 15.4819 59.8297 15.7285 60.1584 15.7285C60.1858 15.7285 60.2093 15.7285 60.2367 15.7246C60.5929 15.6815 60.8512 15.3527 60.8121 14.9965C60.7925 14.8361 60.6829 13.4152 62.503 13.0121C63.4267 12.8086 64.1743 12.4524 64.7301 11.9631C65.3172 11.4386 65.6578 10.6675 65.6578 9.84558V8.01769C65.6578 7.65367 65.3642 7.36012 65.0002 7.36012V7.3562Z" fill="#4F4895"/>
<path d="M71.9712 14.6796H58.0292C57.6651 14.6796 57.3716 14.9731 57.3716 15.3371C57.3716 15.7011 57.6651 15.9947 58.0292 15.9947H71.9712C72.3352 15.9947 72.6288 15.7011 72.6288 15.3371C72.6288 14.9731 72.3352 14.6796 71.9712 14.6796Z" fill="#4F4895"/>
<path d="M71.0591 18.8365L58.9606 18.6995C58.7884 18.6956 58.6201 18.7504 58.4948 18.8678C58.3656 18.9892 58.2913 19.1653 58.2874 19.3493C58.2874 19.7133 58.5731 20.0108 58.9371 20.0147L71.0434 20.1517H71.0473C71.4074 20.1517 71.701 19.8581 71.7049 19.5019C71.7049 19.1379 71.4192 18.8404 71.0552 18.8365H71.0591Z" fill="#4F4895"/>
<path d="M74.5936 26.4297H55.4027C55.0387 26.4297 54.7451 26.7232 54.7451 27.0873C54.7451 27.4513 55.0387 27.7448 55.4027 27.7448H74.5936C74.9576 27.7448 75.2511 27.4513 75.2511 27.0873C75.2511 26.7232 74.9576 26.4297 74.5936 26.4297Z" fill="#4F4895"/>
<path d="M72.5857 28.9071H57.4146C57.0506 28.9071 56.7571 29.2007 56.7571 29.5647C56.7571 29.9287 57.0506 30.2222 57.4146 30.2222H72.5857C72.9497 30.2222 73.2433 29.9287 73.2433 29.5647C73.2433 29.2007 72.9497 28.9071 72.5857 28.9071Z" fill="#4F4895"/>
<path d="M71.0513 22.7231H58.9449C58.5809 22.7231 58.2874 23.0167 58.2874 23.3807C58.2874 23.7447 58.5809 24.0383 58.9449 24.0383H71.0513C71.4153 24.0383 71.7088 23.7447 71.7088 23.3807C71.7088 23.0167 71.4153 22.7231 71.0513 22.7231Z" fill="#4F4895"/>
<path d="M58.2874 14.6796V27.7449H71.7088V14.6796H58.2874ZM59.6025 26.4297V15.9947H70.3937V26.4297H59.6025Z" fill="#4F4895"/>
<path d="M62.1625 22.7231C61.7984 22.7231 61.5049 23.0167 61.5049 23.3807V27.0913C61.5049 27.4553 61.7984 27.7489 62.1625 27.7489C62.5265 27.7489 62.82 27.4553 62.82 27.0913V23.3807C62.82 23.0167 62.5265 22.7231 62.1625 22.7231Z" fill="#4F4895"/>
<path d="M65.1139 22.7231C64.7499 22.7231 64.4563 23.0167 64.4563 23.3807V27.0913C64.4563 27.4553 64.7499 27.7489 65.1139 27.7489C65.4779 27.7489 65.7714 27.4553 65.7714 27.0913V23.3807C65.7714 23.0167 65.4779 22.7231 65.1139 22.7231Z" fill="#4F4895"/>
<path d="M68.065 22.7231C67.701 22.7231 67.4075 23.0167 67.4075 23.3807V27.0913C67.4075 27.4553 67.701 27.7489 68.065 27.7489C68.4291 27.7489 68.7226 27.4553 68.7226 27.0913V23.3807C68.7226 23.0167 68.4291 22.7231 68.065 22.7231Z" fill="#4F4895"/>
<path d="M79.6426 12.5818C79.5135 12.4369 79.3256 12.3508 79.1338 12.343L77.1572 12.253C76.9537 12.2491 76.7579 12.3117 76.617 12.4448C76.48 12.5739 76.4018 12.754 76.39 12.9497C76.3822 13.1454 76.4487 13.3333 76.5818 13.4781C76.7149 13.6229 76.8949 13.709 77.0906 13.7169L78.3314 13.7756L78.2727 14.9459C78.261 15.1416 78.3275 15.3295 78.4606 15.4743C78.5937 15.6191 78.7737 15.7052 78.9812 15.717H79.0086C79.4 15.717 79.7209 15.4117 79.7405 15.0203L79.8384 13.1141C79.8462 12.9184 79.7796 12.7305 79.6505 12.5857L79.6426 12.5818Z" fill="#8C7228"/>
<path d="M55.4381 17.5095C55.3246 17.5095 55.2111 17.4704 55.1211 17.3843L50.8978 13.5171C50.706 13.341 50.6942 13.0435 50.8664 12.8517C51.0426 12.6599 51.34 12.6482 51.5318 12.8204L55.7552 16.6876C55.947 16.8637 55.9587 17.1612 55.7865 17.353C55.6925 17.4547 55.5673 17.5056 55.4381 17.5056V17.5095Z" fill="#4F4895"/>
<path d="M55.438 17.6935C55.2736 17.6935 55.1171 17.6309 54.9957 17.5213L50.7724 13.6541C50.5062 13.4075 50.4867 12.9926 50.7293 12.7265C50.9759 12.4603 51.3908 12.4408 51.6609 12.6834L55.8842 16.5506C56.1504 16.7972 56.1699 17.2121 55.9273 17.4782C55.802 17.6152 55.6259 17.6935 55.4419 17.6935H55.438ZM51.2147 12.8831C51.1364 12.8831 51.062 12.9144 51.0033 12.977C50.8976 13.0905 50.9055 13.2745 51.0229 13.3801L55.2462 17.2473C55.3597 17.3491 55.5476 17.3412 55.6494 17.2277C55.7551 17.1103 55.7472 16.9302 55.6298 16.8246L51.4065 12.9574C51.3517 12.9065 51.2812 12.8831 51.2147 12.8831Z" fill="#4F4895"/>
<path d="M51.2146 27.2912C51.0855 27.2912 50.9602 27.2403 50.8663 27.1386C50.6902 26.9468 50.7058 26.6493 50.8976 26.4732L55.1209 22.606C55.3127 22.4299 55.6102 22.4456 55.7863 22.6373C55.9625 22.8291 55.9468 23.1266 55.755 23.3027L51.5317 27.1699C51.4417 27.2521 51.3282 27.2951 51.2146 27.2951V27.2912Z" fill="#4F4895"/>
<path d="M51.2146 27.4789C51.0306 27.4789 50.8545 27.4006 50.7292 27.2636C50.4827 26.9974 50.5022 26.5786 50.7684 26.3359L54.9917 22.4688C55.2579 22.2261 55.6767 22.2418 55.9233 22.5079C56.1659 22.7741 56.1503 23.1929 55.8841 23.4356L51.6608 27.3027C51.5395 27.4123 51.3829 27.4749 51.2185 27.4749L51.2146 27.4789ZM55.4379 22.6723C55.3675 22.6723 55.3009 22.6958 55.2461 22.7467L51.0228 26.6138C50.9054 26.7195 50.8976 26.8996 51.0032 27.017C51.105 27.1305 51.2929 27.1383 51.4064 27.0366L55.6297 23.1694C55.7471 23.0637 55.755 22.8837 55.6454 22.7663C55.5906 22.7036 55.5123 22.6762 55.434 22.6762L55.4379 22.6723Z" fill="#4F4895"/>
<path d="M53.1833 20.6054H47.1164C46.8581 20.6054 46.6467 20.394 46.6467 20.1357C46.6467 19.8774 46.8581 19.666 47.1164 19.666H53.1833C53.4416 19.666 53.653 19.8774 53.653 20.1357C53.653 20.394 53.4416 20.6054 53.1833 20.6054Z" fill="#4F4895"/>
<path d="M53.1834 20.7898H47.1166C46.7525 20.7898 46.459 20.4962 46.459 20.1322C46.459 19.7682 46.7525 19.4746 47.1166 19.4746H53.1834C53.5474 19.4746 53.841 19.7682 53.841 20.1322C53.841 20.4962 53.5474 20.7898 53.1834 20.7898ZM47.1166 19.8464C46.96 19.8464 46.8308 19.9756 46.8308 20.1322C46.8308 20.2887 46.96 20.4179 47.1166 20.4179H53.1834C53.34 20.4179 53.4691 20.2887 53.4691 20.1322C53.4691 19.9756 53.34 19.8464 53.1834 19.8464H47.1166Z" fill="#4F4895"/>
<path d="M85.2357 64.8037H65.7551V56.2827C65.7551 54.4078 64.2286 52.8853 62.3577 52.8853C60.4868 52.8853 58.9603 54.4118 58.9603 56.2827V64.8037H44.7599C44.3959 64.8037 44.1023 65.0973 44.1023 65.4613C44.1023 65.8253 44.3959 66.1189 44.7599 66.1189H85.2357C85.5997 66.1189 85.8932 65.8253 85.8932 65.4613C85.8932 65.0973 85.5997 64.8037 85.2357 64.8037ZM60.2754 56.2827C60.2754 55.1359 61.2109 54.2004 62.3577 54.2004C63.5045 54.2004 64.44 55.1359 64.44 56.2827V64.8037H60.2715V56.2827H60.2754Z" fill="#8C7228"/>
</svg>
